<svg width="20" height="18" viewBox="0 0 20 18" fill="none" xmlns="http://www.w3.org/2000/svg">
<path d="M0 6.43502L4.37345 0.584961L3.96344 6.43502H0Z" fill="#3DB83A"/>
<path d="M4.3729 0.585006L9.97638 0L3.96289 6.43507L4.3729 0.585006Z" fill="#279625"/>
<path d="M9.97638 0L15.9443 6.43507H3.96289L9.97638 0Z" fill="#3DB83A"/>
<path d="M9.97754 0L15.6721 0.585006L15.9455 6.43507L9.97754 0Z" fill="#279625"/>
<path d="M15.6719 0.584961L19.9998 6.43502H15.9452L15.6719 0.584961Z" fill="#3DB83A"/>
<path d="M9.97754 18.0001L20 6.43494H15.9455L9.97754 18.0001Z" fill="#279625"/>
<path d="M9.97638 18.0001L3.96289 6.43494H15.9443L9.97638 18.0001Z" fill="#3DB83A"/>
<path d="M0 6.43494H3.96344L9.97693 18.0001L0 6.43494Z" fill="#279625"/>
</svg>
